<?xml version="1.0" encoding="utf-8"?>
<!-- Generator: Adobe Illustrator 21.0.0, SVG Export Plug-In . SVG Version: 6.00 Build 0)  -->
<svg version="1.1" id="Layer_1" xmlns="http://www.w3.org/2000/svg" xmlns:xlink="http://www.w3.org/1999/xlink" x="0px" y="0px"
	 viewBox="0 0 189.1 57.5" style="enable-background:new 0 0 189.1 57.5;" xml:space="preserve">
<style type="text/css">
	.st0{fill:#FFFFFF;}
	.st1{fill:#3377FF;}
	.st2{fill:#50BCFF;}
	.st3{fill:#6A55FF;}
	.st4{fill:#41DFF9;}
	.st5{fill:#63C9DF;}
</style>
<g>
	<g>
		<g>
			<g>
				<g>
					<path class="st0" d="M146.3,16.2h2.2v7.9h5v2h-7.1V16.2z"/>
				</g>
				<g>
					<path class="st0" d="M158.4,16.1h2l4.3,10h-2.3l-0.9-2.2h-4.2l-0.9,2.2h-2.2L158.4,16.1z M160.7,21.9l-1.3-3.2l-1.3,3.2H160.7z
						"/>
				</g>
				<g>
					<path class="st0" d="M166.2,16.2h4.6c1.1,0,2,0.3,2.6,0.9c0.4,0.4,0.7,1,0.7,1.7v0c0,1.1-0.6,1.7-1.3,2.1
						c1.1,0.4,1.8,1.1,1.8,2.4v0c0,1.8-1.5,2.7-3.7,2.7h-4.7L166.2,16.2L166.2,16.2z M171.9,19.1c0-0.6-0.5-1-1.4-1h-2.1v2.1h2
						C171.3,20.2,171.9,19.9,171.9,19.1L171.9,19.1z M170.9,22h-2.5v2.2h2.6c1,0,1.6-0.4,1.6-1.1v0C172.5,22.4,172,22,170.9,22z"/>
				</g>
			</g>
			<g>
				<path class="st0" d="M155.4,31.6h2.3v8.3h-2.3V31.6z"/>
			</g>
			<g>
				<path class="st0" d="M161.4,33.7H159v-2h7.2v2h-2.5v6.3h-2.3L161.4,33.7L161.4,33.7z"/>
			</g>
			<g id="XMLID_15_">
				<g>
					<path class="st1" d="M189.1,28.6c0,0.1,0,0.1,0,0.2c0,15.9-12.9,28.7-28.7,28.7c-0.1,0-0.1,0-0.2,0v-0.4v-2.6
						c0.1,0,0.1,0,0.2,0c14.3,0,25.8-11.6,25.8-25.8c0-0.1,0-0.1,0-0.2h2.6L189.1,28.6L189.1,28.6z"/>
					<path class="st2" d="M189.1,28.6h-0.4h-2.6c-0.1-14.2-11.6-25.7-25.8-25.7c-0.1,0-0.1,0-0.2,0V0c0.1,0,0.1,0,0.2,0
						C176.2,0,189,12.8,189.1,28.6z"/>
					<path class="st3" d="M160.2,57.2v0.4c-15.8-0.1-28.6-12.9-28.6-28.7c0-0.1,0-0.1,0-0.2h2.9c0,0.1,0,0.1,0,0.2
						c0,14.2,11.5,25.7,25.7,25.8V57.2z"/>
					<path class="st4" d="M160.2,0v2.9C146,3,134.6,14.5,134.5,28.6h-2.9C131.7,12.8,144.4,0.1,160.2,0z"/>
				</g>
			</g>
		</g>
		<g id="XMLID_14_">
			<g>
				<path class="st5" d="M149.2,29.7l3,3c0.1,0.1,0.1,0.3,0,0.4l-2.9,2.9l-3.3-3.3l2.9-2.9C148.9,29.6,149.1,29.6,149.2,29.7z"/>
			</g>
			<g>
				<path class="st2" d="M145.9,32.7l3.3,3.3l-3.3,3.3l-2.7-2.7c-0.4-0.4-0.4-0.9,0-1.3L145.9,32.7z"/>
			</g>
			<g>
				<path class="st3" d="M149.2,36l2.9,2.9c0.1,0.1,0.1,0.3,0,0.4l-3,3c-0.1,0.1-0.3,0.1-0.4,0l-2.9-2.9L149.2,36z"/>
			</g>
		</g>
		<g id="XMLID_13_">
			<g>
				<path class="st5" d="M172.5,29.7l-3,3c-0.1,0.1-0.1,0.3,0,0.4l2.9,2.9l3.3-3.3l-2.9-2.9C172.8,29.6,172.6,29.6,172.5,29.7z"/>
			</g>
			<g>
				<path class="st2" d="M175.8,32.7l-3.3,3.3l3.3,3.3l2.7-2.7c0.4-0.4,0.4-0.9,0-1.3L175.8,32.7z"/>
			</g>
			<g>
				<path class="st3" d="M172.5,36l-2.9,2.9c-0.1,0.1-0.1,0.3,0,0.4l3,3c0.1,0.1,0.3,0.1,0.4,0l2.9-2.9L172.5,36z"/>
			</g>
		</g>
	</g>
	<g>
		<path class="st0" d="M23.1,11.6h3c2.4,0,4.1,1.7,4.1,3.8v0c0,2.2-1.7,3.9-4.1,3.9h-3V11.6z M24.8,13.1v4.6h1.3
			c1.4,0,2.3-0.9,2.3-2.3v0c0-1.4-0.9-2.3-2.3-2.3H24.8z"/>
		<path class="st0" d="M31.7,11.6h5.8v1.5h-4.1v1.6H37v1.5h-3.6v1.6h4.2v1.5h-5.9V11.6z"/>
		<path class="st0" d="M38.5,18.2l1-1.2c0.7,0.6,1.4,0.9,2.3,0.9c0.7,0,1.1-0.3,1.1-0.7v0c0-0.4-0.3-0.6-1.6-1
			c-1.6-0.4-2.6-0.8-2.6-2.4v0c0-1.4,1.1-2.3,2.7-2.3c1.1,0,2.1,0.4,2.9,1l-0.9,1.3c-0.7-0.5-1.4-0.8-2-0.8c-0.6,0-1,0.3-1,0.7v0
			c0,0.5,0.3,0.7,1.7,1c1.6,0.4,2.4,1,2.4,2.3v0c0,1.5-1.2,2.4-2.8,2.4C40.6,19.4,39.4,19,38.5,18.2z"/>
		<path class="st0" d="M48.6,11.6h1.6l3.3,7.8h-1.8L51,17.6h-3.3L47,19.3h-1.7L48.6,11.6z M50.3,16.1l-1-2.5l-1,2.5H50.3z"/>
		<path class="st0" d="M54.6,11.6h3.5c1,0,1.7,0.3,2.2,0.8c0.4,0.4,0.7,1,0.7,1.8v0c0,1.2-0.7,2-1.7,2.4l1.9,2.8h-2l-1.6-2.5h-1.3
			v2.5h-1.7V11.6z M58,15.3c0.8,0,1.3-0.4,1.3-1.1v0c0-0.7-0.5-1.1-1.3-1.1h-1.7v2.2H58z"/>
		<path class="st0" d="M62.6,11.6h3.5c1,0,1.7,0.3,2.2,0.8c0.4,0.4,0.7,1,0.7,1.8v0c0,1.2-0.7,2-1.7,2.4l1.9,2.8h-2l-1.6-2.5h-1.3
			v2.5h-1.7V11.6z M66,15.3c0.8,0,1.3-0.4,1.3-1.1v0c0-0.7-0.5-1.1-1.3-1.1h-1.7v2.2H66z"/>
		<path class="st0" d="M70.2,15.5L70.2,15.5c0-2.2,1.7-4,4.1-4c2.4,0,4.1,1.8,4.1,4v0c0,2.2-1.7,4-4.1,4S70.2,17.7,70.2,15.5z
			 M76.6,15.5L76.6,15.5c0-1.3-1-2.4-2.3-2.4S72,14.1,72,15.4v0c0,1.3,1,2.4,2.3,2.4C75.6,17.9,76.6,16.8,76.6,15.5z"/>
		<path class="st0" d="M79.9,11.6h1.7v6.2h3.8v1.5h-5.5V11.6z"/>
		<path class="st0" d="M86.7,11.6h1.7v6.2h3.8v1.5h-5.5V11.6z"/>
		<path class="st0" d="M96.1,11.6h1.6l3.3,7.8h-1.8l-0.7-1.7h-3.3l-0.7,1.7h-1.7L96.1,11.6z M97.9,16.1l-1-2.5l-1,2.5H97.9z"/>
		<path class="st0" d="M102.2,11.6h3c2.4,0,4.1,1.7,4.1,3.8v0c0,2.2-1.7,3.9-4.1,3.9h-3V11.6z M103.9,13.1v4.6h1.3
			c1.4,0,2.3-0.9,2.3-2.3v0c0-1.4-0.9-2.3-2.3-2.3H103.9z"/>
		<path class="st0" d="M110.4,15.5L110.4,15.5c0-2.2,1.7-4,4.1-4c2.4,0,4.1,1.8,4.1,4v0c0,2.2-1.7,4-4.1,4
			C112.1,19.4,110.4,17.7,110.4,15.5z M116.9,15.5L116.9,15.5c0-1.3-1-2.4-2.3-2.4c-1.4,0-2.3,1.1-2.3,2.4v0c0,1.3,1,2.4,2.3,2.4
			S116.9,16.8,116.9,15.5z"/>
		<path class="st0" d="M0,24.8h1.7v7.7H0V24.8z"/>
		<path class="st0" d="M3.6,24.8h1.6l3.6,4.7v-4.7h1.7v7.7H9l-3.7-4.9v4.9H3.6V24.8z"/>
		<path class="st0" d="M14.1,26.4h-2.3v-1.6h6.4v1.6h-2.3v6.1h-1.7V26.4z"/>
		<path class="st0" d="M19.4,24.8h5.8v1.5h-4.1v1.6h3.6v1.5h-3.6V31h4.2v1.5h-5.9V24.8z"/>
		<path class="st0" d="M26.5,28.7L26.5,28.7c0-2.2,1.7-4,4-4c1.4,0,2.2,0.4,3,1.1L32.5,27c-0.6-0.5-1.1-0.8-2-0.8
			c-1.2,0-2.2,1.1-2.2,2.4v0c0,1.4,1,2.4,2.3,2.4c0.6,0,1.2-0.2,1.6-0.5v-1.1h-1.7v-1.5h3.3v3.3c-0.8,0.7-1.9,1.2-3.3,1.2
			C28.1,32.6,26.5,31,26.5,28.7z"/>
		<path class="st0" d="M35.4,24.8H39c1,0,1.7,0.3,2.2,0.8c0.4,0.4,0.7,1,0.7,1.8v0c0,1.2-0.7,2-1.7,2.4l1.9,2.8h-2L38.5,30h-1.3v2.5
			h-1.7V24.8z M38.8,28.5c0.8,0,1.3-0.4,1.3-1.1v0c0-0.7-0.5-1.1-1.3-1.1h-1.7v2.2H38.8z"/>
		<path class="st0" d="M46,24.8h1.6l3.3,7.8h-1.8l-0.7-1.7h-3.3l-0.7,1.7h-1.7L46,24.8z M47.8,29.3l-1-2.5l-1,2.5H47.8z"/>
		<path class="st0" d="M52.1,24.8h1.8l2,3.3l2-3.3h1.8v7.7h-1.7v-5l-2.2,3.3h0l-2.1-3.3v5h-1.7V24.8z"/>
		<path class="st0" d="M61.6,24.8h5.8v1.5h-4.1v1.6h3.6v1.5h-3.6V31h4.2v1.5h-5.9V24.8z"/>
		<path class="st0" d="M69,24.8h1.6l3.6,4.7v-4.7h1.7v7.7h-1.4l-3.7-4.9v4.9H69V24.8z"/>
		<path class="st0" d="M79.5,26.4h-2.3v-1.6h6.4v1.6h-2.3v6.1h-1.7V26.4z"/>
		<path class="st0" d="M84.8,24.8h5.8v1.5h-4.1v1.6h3.6v1.5h-3.6V31h4.2v1.5h-5.9V24.8z"/>
		<path class="st0" d="M95.5,24.8h3.1c1.8,0,2.9,1.1,2.9,2.7v0c0,1.8-1.4,2.7-3.1,2.7h-1.3v2.3h-1.7V24.8z M98.5,28.7
			c0.8,0,1.3-0.5,1.3-1.2v0c0-0.8-0.5-1.2-1.4-1.2h-1.3v2.4H98.5z"/>
		<path class="st0" d="M102.5,28.7L102.5,28.7c0-2.2,1.7-4,4.1-4c2.4,0,4.1,1.8,4.1,4v0c0,2.2-1.7,4-4.1,4S102.5,30.9,102.5,28.7z
			 M108.9,28.7L108.9,28.7c0-1.3-1-2.4-2.3-2.4s-2.3,1.1-2.3,2.4v0c0,1.3,1,2.4,2.3,2.4C108,31.1,108.9,30,108.9,28.7z"/>
		<path class="st0" d="M112.2,24.8h3.5c1,0,1.7,0.3,2.2,0.8c0.4,0.4,0.7,1,0.7,1.8v0c0,1.2-0.7,2-1.7,2.4l1.9,2.8h-2l-1.6-2.5h-1.3
			v2.5h-1.7V24.8z M115.6,28.5c0.8,0,1.3-0.4,1.3-1.1v0c0-0.7-0.5-1.1-1.3-1.1h-1.7v2.2H115.6z"/>
		<path class="st0" d="M19.1,38h1.8l2,3.3l2-3.3h1.8v7.7h-1.7v-5L22.9,44h0l-2.1-3.3v5h-1.7V38z"/>
		<path class="st0" d="M28.3,41.9L28.3,41.9c0-2.2,1.7-4,4.1-4c2.4,0,4.1,1.8,4.1,4v0c0,2.2-1.7,4-4.1,4S28.3,44.1,28.3,41.9z
			 M34.7,41.9L34.7,41.9c0-1.3-1-2.4-2.3-2.4s-2.3,1.1-2.3,2.4v0c0,1.3,1,2.4,2.3,2.4C33.8,44.3,34.7,43.2,34.7,41.9z"/>
		<path class="st0" d="M38,38h3c2.4,0,4.1,1.7,4.1,3.8v0c0,2.2-1.7,3.9-4.1,3.9h-3V38z M39.7,39.5v4.6H41c1.4,0,2.3-0.9,2.3-2.3v0
			c0-1.4-0.9-2.3-2.3-2.3H39.7z"/>
		<path class="st0" d="M46.6,38h5.8v1.5h-4.1v1.6h3.6v1.5h-3.6v1.6h4.2v1.5h-5.9V38z"/>
		<path class="st0" d="M54,38h3.5c1,0,1.7,0.3,2.2,0.8c0.4,0.4,0.7,1,0.7,1.8v0c0,1.2-0.7,2-1.7,2.4l1.9,2.8h-2L57,43.2h-1.3v2.5H54
			V38z M57.4,41.7c0.8,0,1.3-0.4,1.3-1.1v0c0-0.7-0.5-1.1-1.3-1.1h-1.7v2.2H57.4z"/>
		<path class="st0" d="M61.9,38h1.6l3.6,4.7V38h1.7v7.7h-1.4l-3.7-4.9v4.9h-1.7V38z"/>
		<path class="st0" d="M70.7,38h1.7v7.7h-1.7V38z"/>
		<path class="st0" d="M74.1,44.4l4.2-4.9h-4.1V38h6.3v1.3l-4.2,4.9h4.2v1.5h-6.4V44.4z"/>
		<path class="st0" d="M84.7,38h1.6l3.3,7.8h-1.8L87.1,44h-3.3l-0.7,1.7h-1.7L84.7,38z M86.5,42.5l-1-2.5l-1,2.5H86.5z"/>
		<path class="st0" d="M89.9,41.9L89.9,41.9c0-2.2,1.7-4,4-4c1.5,0,2.3,0.5,3,1.2l-1.1,1.2c-0.6-0.5-1.2-0.9-2-0.9
			c-1.3,0-2.2,1.1-2.2,2.4v0c0,1.3,0.9,2.4,2.2,2.4c0.9,0,1.4-0.4,2-0.9l1.1,1.1c-0.8,0.8-1.7,1.4-3.2,1.4
			C91.6,45.8,89.9,44.1,89.9,41.9z"/>
		<path class="st0" d="M98.5,38h1.7v7.7h-1.7V38z"/>
		<path class="st0" d="M101.7,41.9L101.7,41.9c0-2.2,1.7-4,4.1-4c2.4,0,4.1,1.8,4.1,4v0c0,2.2-1.7,4-4.1,4
			C103.5,45.8,101.7,44.1,101.7,41.9z M108.2,41.9L108.2,41.9c0-1.3-1-2.4-2.3-2.4c-1.4,0-2.3,1.1-2.3,2.4v0c0,1.3,1,2.4,2.3,2.4
			S108.2,43.2,108.2,41.9z M106.5,35.6l1.4,0.6l-1.5,1.1h-1.3L106.5,35.6z"/>
		<path class="st0" d="M111.4,38h1.6l3.6,4.7V38h1.7v7.7h-1.4l-3.7-4.9v4.9h-1.7V38z"/>
	</g>
</g>
</svg>
